<?xml version="1.0" encoding="utf-8"?>
<!-- Generator: Adobe Illustrator 19.2.1, SVG Export Plug-In . SVG Version: 6.00 Build 0)  -->
<svg version="1.1" id="Ebene_1" xmlns="http://www.w3.org/2000/svg" xmlns:xlink="http://www.w3.org/1999/xlink" x="0px" y="0px"
	 viewBox="0 0 1334.3 268.4" style="enable-background:new 0 0 1334.3 268.4;" xml:space="preserve">
<style type="text/css">
	.st0{fill:none;stroke:#000000;stroke-width:0.9;}
</style>
<g transform="translate(22.5000185, 22.5000185) ">
	<polygon class="st0" points="-4.5,-4.5 18.2,-4.5 18.2,4 40.9,4 40.9,-4.5 57.9,-4.5 57.9,4 74.9,4 74.9,-4.5 91.9,-4.5 91.9,4 
		108.9,4 108.9,-4.5 125.9,-4.5 125.9,4 142.9,4 142.9,-4.5 159.9,-4.5 159.9,4 176.9,4 176.9,-4.5 193.9,-4.5 193.9,4 210.9,4 
		210.9,-4.5 227.9,-4.5 227.9,4 244.9,4 244.9,-4.5 262,-4.5 262,4 279,4 279,-4.5 296,-4.5 296,4 313,4 313,-4.5 330,-4.5 330,4 
		347,4 347,-4.5 364,-4.5 364,4 381,4 381,-4.5 398,-4.5 398,4 415,4 415,-4.5 432,-4.5 432,4 449,4 449,-4.5 466.1,-4.5 466.1,4 
		483.1,4 483.1,-4.5 500.1,-4.5 500.1,4 517.1,4 517.1,-4.5 534.1,-4.5 534.1,4 556.8,4 556.8,-4.5 579.4,-4.5 579.4,16.8 
		570.9,16.8 570.9,38 579.4,38 579.4,55 570.9,55 570.9,76.3 579.4,76.3 579.4,97.5 556.8,97.5 556.8,89 534.1,89 534.1,97.5 
		517.1,97.5 517.1,89 500.1,89 500.1,97.5 483.1,97.5 483.1,89 466.1,89 466.1,97.5 449,97.5 449,89 432,89 432,97.5 415,97.5 
		415,89 398,89 398,97.5 381,97.5 381,89 364,89 364,97.5 347,97.5 347,89 330,89 330,97.5 313,97.5 313,89 296,89 296,97.5 
		279,97.5 279,89 262,89 262,97.5 244.9,97.5 244.9,89 227.9,89 227.9,97.5 210.9,97.5 210.9,89 193.9,89 193.9,97.5 176.9,97.5 
		176.9,89 159.9,89 159.9,97.5 142.9,97.5 142.9,89 125.9,89 125.9,97.5 108.9,97.5 108.9,89 91.9,89 91.9,97.5 74.9,97.5 74.9,89 
		57.9,89 57.9,97.5 40.9,97.5 40.9,89 18.2,89 18.2,97.5 -4.5,97.5 -4.5,76.3 4,76.3 4,55 -4.5,55 -4.5,38 4,38 4,16.8 -4.5,16.8 	
		"/>
</g>
<g transform="translate(752.4218784999999, 22.5000185) ">
	<polygon class="st0" points="-150.5,-4.5 -127.8,-4.5 -127.8,4 -105.1,4 -105.1,-4.5 -88.1,-4.5 -88.1,4 -71.1,4 -71.1,-4.5 
		-54.1,-4.5 -54.1,4 -37.1,4 -37.1,-4.5 -20.1,-4.5 -20.1,4 -3.1,4 -3.1,-4.5 13.9,-4.5 13.9,4 30.9,4 30.9,-4.5 47.9,-4.5 47.9,4 
		64.9,4 64.9,-4.5 82,-4.5 82,4 99,4 99,-4.5 116,-4.5 116,4 133,4 133,-4.5 150,-4.5 150,4 167,4 167,-4.5 184,-4.5 184,4 201,4 
		201,-4.5 218,-4.5 218,4 235,4 235,-4.5 252,-4.5 252,4 269,4 269,-4.5 286.1,-4.5 286.1,4 303.1,4 303.1,-4.5 320.1,-4.5 320.1,4 
		337.1,4 337.1,-4.5 354.1,-4.5 354.1,4 371.1,4 371.1,-4.5 388.1,-4.5 388.1,4 410.8,4 410.8,-4.5 433.5,-4.5 433.5,16.8 
		424.9,16.8 424.9,38 433.5,38 433.5,55 424.9,55 424.9,76.3 433.5,76.3 433.5,97.5 410.8,97.5 410.8,89 388.1,89 388.1,97.5 
		371.1,97.5 371.1,89 354.1,89 354.1,97.5 337.1,97.5 337.1,89 320.1,89 320.1,97.5 303.1,97.5 303.1,89 286.1,89 286.1,97.5 
		269,97.5 269,89 252,89 252,97.5 235,97.5 235,89 218,89 218,97.5 201,97.5 201,89 184,89 184,97.5 167,97.5 167,89 150,89 
		150,97.5 133,97.5 133,89 116,89 116,97.5 99,97.5 99,89 82,89 82,97.5 64.9,97.5 64.9,89 47.9,89 47.9,97.5 30.9,97.5 30.9,89 
		13.9,89 13.9,97.5 -3.1,97.5 -3.1,89 -20.1,89 -20.1,97.5 -37.1,97.5 -37.1,89 -54.1,89 -54.1,97.5 -71.1,97.5 -71.1,89 -88.1,89 
		-88.1,97.5 -105.1,97.5 -105.1,89 -127.8,89 -127.8,97.5 -150.5,97.5 -150.5,76.3 -142,76.3 -142,55 -150.5,55 -150.5,38 -142,38 
		-142,16.8 -150.5,16.8 	"/>
</g>
<g transform="translate(1482.3437385, 22.5000185) ">
	<polygon class="st0" points="-288,-4.5 -268.1,-4.5 -268.1,4 -239.8,4 -239.8,-4.5 -222.8,-4.5 -222.8,4 -194.4,4 -194.4,-4.5 
		-174.6,-4.5 -174.6,16.8 -166.1,16.8 -166.1,38 -174.6,38 -174.6,55 -166.1,55 -166.1,76.3 -174.6,76.3 -174.6,97.5 -194.4,97.5 
		-194.4,89 -222.8,89 -222.8,97.5 -239.8,97.5 -239.8,89 -268.1,89 -268.1,97.5 -288,97.5 -288,76.3 -296.5,76.3 -296.5,55 -288,55 
		-288,38 -296.5,38 -296.5,16.8 -288,16.8 	"/>
</g>
<g transform="translate(1482.3437385, 150.0591785) ">
	<polygon class="st0" points="-288,-30 -268.1,-30 -268.1,-21.5 -239.8,-21.5 -239.8,-30 -222.8,-30 -222.8,-21.5 -194.4,-21.5 
		-194.4,-30 -174.6,-30 -174.6,-8.8 -166.1,-8.8 -166.1,12.5 -174.6,12.5 -174.6,29.5 -166.1,29.5 -166.1,50.8 -174.6,50.8 
		-174.6,72 -194.4,72 -194.4,63.5 -222.8,63.5 -222.8,72 -239.8,72 -239.8,63.5 -268.1,63.5 -268.1,72 -288,72 -288,50.8 
		-296.5,50.8 -296.5,29.5 -288,29.5 -288,12.5 -296.5,12.5 -296.5,-8.8 -288,-8.8 	"/>
</g>
<g transform="translate(22.5000185, 150.0591785) ">
	<polygon class="st0" points="4,-21.5 18.2,-21.5 18.2,-30 40.9,-30 40.9,-21.5 57.9,-21.5 57.9,-30 74.9,-30 74.9,-21.5 
		91.9,-21.5 91.9,-30 108.9,-30 108.9,-21.5 125.9,-21.5 125.9,-30 142.9,-30 142.9,-21.5 159.9,-21.5 159.9,-30 176.9,-30 
		176.9,-21.5 193.9,-21.5 193.9,-30 210.9,-30 210.9,-21.5 227.9,-21.5 227.9,-30 244.9,-30 244.9,-21.5 262,-21.5 262,-30 279,-30 
		279,-21.5 296,-21.5 296,-30 313,-30 313,-21.5 330,-21.5 330,-30 347,-30 347,-21.5 364,-21.5 364,-30 381,-30 381,-21.5 
		398,-21.5 398,-30 415,-30 415,-21.5 432,-21.5 432,-30 449,-30 449,-21.5 466.1,-21.5 466.1,-30 483.1,-30 483.1,-21.5 
		500.1,-21.5 500.1,-30 517.1,-30 517.1,-21.5 534.1,-21.5 534.1,-30 556.8,-30 556.8,-21.5 570.9,-21.5 570.9,-1.7 579.4,-1.7 
		579.4,26.7 570.9,26.7 570.9,43.7 579.4,43.7 579.4,72 570.9,72 570.9,91.9 556.8,91.9 556.8,100.4 534.1,100.4 534.1,91.9 
		517.1,91.9 517.1,100.4 500.1,100.4 500.1,91.9 483.1,91.9 483.1,100.4 466.1,100.4 466.1,91.9 449,91.9 449,100.4 432,100.4 
		432,91.9 415,91.9 415,100.4 398,100.4 398,91.9 381,91.9 381,100.4 364,100.4 364,91.9 347,91.9 347,100.4 330,100.4 330,91.9 
		313,91.9 313,100.4 296,100.4 296,91.9 279,91.9 279,100.4 262,100.4 262,91.9 244.9,91.9 244.9,100.4 227.9,100.4 227.9,91.9 
		210.9,91.9 210.9,100.4 193.9,100.4 193.9,91.9 176.9,91.9 176.9,100.4 159.9,100.4 159.9,91.9 142.9,91.9 142.9,100.4 
		125.9,100.4 125.9,91.9 108.9,91.9 108.9,100.4 91.9,100.4 91.9,91.9 74.9,91.9 74.9,100.4 57.9,100.4 57.9,91.9 40.9,91.9 
		40.9,100.4 18.2,100.4 18.2,91.9 4,91.9 4,72 -4.5,72 -4.5,43.7 4,43.7 4,26.7 -4.5,26.7 -4.5,-1.7 4,-1.7 	"/>
	<circle class="st0" cx="80.5" cy="32.4" r="9.9"/>
	<circle class="st0" cx="137.2" cy="32.4" r="9.9"/>
	<circle class="st0" cx="193.9" cy="32.4" r="9.9"/>
	<circle class="st0" cx="250.6" cy="32.4" r="9.9"/>
	<circle class="st0" cx="307.3" cy="32.4" r="9.9"/>
	<circle class="st0" cx="364" cy="32.4" r="9.9"/>
	<circle class="st0" cx="420.7" cy="32.4" r="9.9"/>
	<circle class="st0" cx="477.4" cy="32.4" r="9.9"/>
</g>
<g transform="translate(752.4218784999999, 150.0591785) ">
	<polygon class="st0" points="-142,-21.5 -127.8,-21.5 -127.8,-30 -105.1,-30 -105.1,-21.5 -88.1,-21.5 -88.1,-30 -71.1,-30 
		-71.1,-21.5 -54.1,-21.5 -54.1,-30 -37.1,-30 -37.1,-21.5 -20.1,-21.5 -20.1,-30 -3.1,-30 -3.1,-21.5 13.9,-21.5 13.9,-30 
		30.9,-30 30.9,-21.5 47.9,-21.5 47.9,-30 64.9,-30 64.9,-21.5 82,-21.5 82,-30 99,-30 99,-21.5 116,-21.5 116,-30 133,-30 
		133,-21.5 150,-21.5 150,-30 167,-30 167,-21.5 184,-21.5 184,-30 201,-30 201,-21.5 218,-21.5 218,-30 235,-30 235,-21.5 
		252,-21.5 252,-30 269,-30 269,-21.5 286.1,-21.5 286.1,-30 303.1,-30 303.1,-21.5 320.1,-21.5 320.1,-30 337.1,-30 337.1,-21.5 
		354.1,-21.5 354.1,-30 371.1,-30 371.1,-21.5 388.1,-21.5 388.1,-30 410.8,-30 410.8,-21.5 424.9,-21.5 424.9,-1.7 433.5,-1.7 
		433.5,26.7 424.9,26.7 424.9,43.7 433.5,43.7 433.5,72 424.9,72 424.9,91.9 410.8,91.9 410.8,100.4 388.1,100.4 388.1,91.9 
		371.1,91.9 371.1,100.4 354.1,100.4 354.1,91.9 337.1,91.9 337.1,100.4 320.1,100.4 320.1,91.9 303.1,91.9 303.1,100.4 
		286.1,100.4 286.1,91.9 269,91.9 269,100.4 252,100.4 252,91.9 235,91.9 235,100.4 218,100.4 218,91.9 201,91.9 201,100.4 
		184,100.4 184,91.9 167,91.9 167,100.4 150,100.4 150,91.9 133,91.9 133,100.4 116,100.4 116,91.9 99,91.9 99,100.4 82,100.4 
		82,91.9 64.9,91.9 64.9,100.4 47.9,100.4 47.9,91.9 30.9,91.9 30.9,100.4 13.9,100.4 13.9,91.9 -3.1,91.9 -3.1,100.4 -20.1,100.4 
		-20.1,91.9 -37.1,91.9 -37.1,100.4 -54.1,100.4 -54.1,91.9 -71.1,91.9 -71.1,100.4 -88.1,100.4 -88.1,91.9 -105.1,91.9 
		-105.1,100.4 -127.8,100.4 -127.8,91.9 -142,91.9 -142,72 -150.5,72 -150.5,43.7 -142,43.7 -142,26.7 -150.5,26.7 -150.5,-1.7 
		-142,-1.7 	"/>
</g>
<circle class="st0" cx="1251.1" cy="185.1" r="20.8"/>
</svg>
